<svg width="16" height="16" viewBox="0 0 16 16" fill="none" xmlns="http://www.w3.org/2000/svg">
<mask id="mask0_1305_8934" style="mask-type:alpha" maskUnits="userSpaceOnUse" x="0" y="0" width="16" height="16">
<rect width="16" height="16" fill="#D9D9D9"/>
</mask>
<g mask="url(#mask0_1305_8934)">
<path d="M2.86675 13C2.53341 13 2.25008 12.8833 2.01675 12.65C1.78341 12.4167 1.66675 12.1333 1.66675 11.8V4.2C1.66675 3.86667 1.78341 3.58333 2.01675 3.35C2.25008 3.11667 2.53341 3 2.86675 3H13.1334C13.4667 3 13.7501 3.11667 13.9834 3.35C14.2167 3.58333 14.3334 3.86667 14.3334 4.2V11.8C14.3334 12.1333 14.2167 12.4167 13.9834 12.65C13.7501 12.8833 13.4667 13 13.1334 13H2.86675ZM8.00008 8.36667L2.66675 4.96667V11.8C2.66675 11.8556 2.6863 11.9029 2.72541 11.942C2.76408 11.9807 2.81119 12 2.86675 12H13.1334C13.189 12 13.2363 11.9807 13.2754 11.942C13.3141 11.9029 13.3334 11.8556 13.3334 11.8V4.96667L8.00008 8.36667ZM8.00008 7.33333L13.2334 4H2.76675L8.00008 7.33333ZM2.66675 4.96667V4V11.8C2.66675 11.8556 2.6863 11.9029 2.72541 11.942C2.76408 11.9807 2.81119 12 2.86675 12H2.66675V11.8V4.96667Z" fill="#45A1F0"/>
</g>
</svg>
