<svg width="12" height="12" viewBox="0 0 12 12" fill="none" xmlns="http://www.w3.org/2000/svg">
<path d="M10.95 11.6334C9.66109 11.6334 8.38064 11.3249 7.10864 10.708C5.8362 10.0916 4.69998 9.28337 3.69998 8.28337C2.69998 7.28337 1.89175 6.15004 1.27531 4.88337C0.65842 3.61671 0.349976 2.33337 0.349976 1.03337C0.349976 0.833374 0.416642 0.666707 0.549976 0.533374C0.683309 0.400041 0.849975 0.333374 1.04998 0.333374H3.21664C3.39442 0.333374 3.54709 0.386041 3.67464 0.491374C3.80264 0.597152 3.88331 0.733374 3.91664 0.900041L4.29998 2.86671C4.3222 3.03337 4.31664 3.18337 4.28331 3.31671C4.24998 3.45004 4.17775 3.56671 4.06664 3.66671L2.53331 5.16671C3.06664 6.0556 3.69709 6.86115 4.42464 7.58337C5.15264 8.3056 5.97775 8.93337 6.89998 9.46671L8.38331 7.96671C8.49442 7.8556 8.62509 7.77782 8.77531 7.73337C8.92509 7.68893 9.07775 7.67782 9.23331 7.70004L11.0833 8.08337C11.25 8.11671 11.3862 8.19449 11.492 8.31671C11.5973 8.43893 11.65 8.58893 11.65 8.76671V10.9334C11.65 11.1334 11.5833 11.3 11.45 11.4334C11.3166 11.5667 11.15 11.6334 10.95 11.6334ZM2.06664 4.21671L3.24998 3.08337C3.2722 3.06115 3.2862 3.03604 3.29198 3.00804C3.29731 2.98049 3.29442 2.9556 3.28331 2.93337L2.99998 1.43337C2.98886 1.40004 2.9722 1.37493 2.94998 1.35804C2.92775 1.3416 2.89998 1.33337 2.86664 1.33337H1.44998C1.41664 1.33337 1.39153 1.3416 1.37464 1.35804C1.3582 1.37493 1.34998 1.39449 1.34998 1.41671C1.38331 1.87226 1.45842 2.33604 1.57531 2.80804C1.69175 3.28049 1.85553 3.75004 2.06664 4.21671ZM7.83331 9.93337C8.27775 10.1445 8.73887 10.3056 9.21664 10.4167C9.69442 10.5278 10.1444 10.5889 10.5666 10.6C10.5889 10.6 10.6084 10.5916 10.6253 10.5747C10.6418 10.5583 10.65 10.5389 10.65 10.5167V9.11671C10.65 9.08337 10.6418 9.0556 10.6253 9.03337C10.6084 9.01115 10.5833 8.99449 10.55 8.98337L9.14998 8.70004C9.12775 8.68893 9.10553 8.68893 9.08331 8.70004L9.01664 8.73337L7.83331 9.93337Z" fill="#45A1F0"/>
</svg>
